<svg width="35" height="34" viewBox="0 0 35 34" fill="none" xmlns="http://www.w3.org/2000/svg">
<path fill-rule="evenodd" clip-rule="evenodd" d="M17.8333 1.35547C26.6911 1.35547 33.8739 8.53664 33.8739 17.396C33.8739 24.4834 29.2778 30.4959 22.9044 32.6171C22.103 32.7659 21.8087 32.2692 21.8087 31.8455C21.8087 31.463 21.8235 30.1994 21.8304 28.8591C26.2929 29.8294 27.2346 26.9665 27.2346 26.9665C27.9642 25.1124 29.0156 24.6194 29.0156 24.6194C30.4712 23.6239 28.9059 23.6446 28.9059 23.6446C27.2954 23.7575 26.447 25.2976 26.447 25.2976C25.0163 27.7493 22.6945 27.0406 21.7792 26.631C21.6352 25.5943 21.2195 24.8864 20.7608 24.4858C24.3236 24.0808 28.0692 22.7051 28.0692 16.5588C28.0692 14.8075 27.4423 13.3766 26.4162 12.253C26.583 11.8493 27.132 10.2178 26.2611 8.00831C26.2611 8.00831 24.9143 7.5772 21.849 9.65253C20.5692 9.29686 19.1968 9.11809 17.8333 9.11198C16.4707 9.11809 15.0974 9.29633 13.8152 9.652C10.7536 7.57667 9.40848 8.00778 9.40848 8.00778C8.53537 10.217 9.08442 11.8487 9.25097 12.2525C8.22247 13.3761 7.6001 14.807 7.6001 16.5583C7.6001 22.7192 11.3526 24.0754 14.9244 24.4728C14.3488 24.9706 13.8362 25.947 13.8362 27.4433C13.8362 29.5895 13.8548 31.3169 13.8548 31.8452C13.8548 32.2721 13.5658 32.7723 12.753 32.6148C6.38328 30.4913 1.79248 24.4808 1.79248 17.396C1.79275 8.53717 8.97471 1.35547 17.8333 1.35547Z" fill="#181616"/>
<path d="M27.7985 24.3858C27.8338 24.4655 27.9592 24.4894 28.0734 24.4349C28.1903 24.3829 28.2554 24.2742 28.2176 24.1943C28.1831 24.1119 28.0575 24.0894 27.9414 24.1443C27.8245 24.1967 27.7581 24.3064 27.7988 24.3861L27.7985 24.3858ZM27.1488 25.1107C27.225 25.1816 27.3746 25.1487 27.476 25.0363C27.5812 24.9247 27.6009 24.7752 27.523 24.7032C27.4439 24.6326 27.2988 24.666 27.1937 24.7776C27.089 24.8907 27.0683 25.039 27.1485 25.1109L27.1488 25.1107ZM26.5161 26.0343C26.6143 26.1028 26.7753 26.0388 26.8746 25.8961C26.9729 25.7532 26.9729 25.5819 26.872 25.5136C26.7729 25.4451 26.6143 25.507 26.5134 25.6483C26.4156 25.7931 26.4156 25.9647 26.5161 26.0343ZM25.6498 26.927C25.7375 27.024 25.925 26.9979 26.0621 26.8659C26.2021 26.7366 26.2411 26.5525 26.1532 26.4558C26.064 26.3586 25.8756 26.3857 25.7378 26.5169C25.5978 26.646 25.5556 26.8303 25.6493 26.9268L25.6498 26.927ZM24.4545 27.4453C24.4936 27.5709 24.6737 27.628 24.8556 27.5744C25.0371 27.5194 25.1558 27.3725 25.1186 27.2455C25.0814 27.1188 24.9 27.0596 24.717 27.1167C24.5356 27.1714 24.4168 27.3175 24.4545 27.4453ZM23.1416 27.5411C23.137 27.6734 23.2911 27.7829 23.4816 27.7855C23.6736 27.79 23.829 27.6827 23.8308 27.5526C23.8308 27.419 23.68 27.3109 23.4882 27.3071C23.2977 27.3037 23.1413 27.4099 23.1413 27.5409L23.1416 27.5411ZM21.9202 27.3334C21.8974 27.4623 22.0299 27.5948 22.2193 27.6301C22.4052 27.6647 22.5779 27.5844 22.6018 27.4567C22.6246 27.3244 22.4897 27.1919 22.3038 27.1576C22.1141 27.1249 21.9441 27.2025 21.9202 27.3334Z" fill="#181616"/>
</svg>
