<svg width="34" height="34" viewBox="0 0 34 34" fill="none" xmlns="http://www.w3.org/2000/svg">
<g clip-path="url(#clip0_1325_137)">
<path d="M30.7396 0.796998H3.92706C3.31871 0.790619 2.73274 1.03315 2.29774 1.47137C1.86273 1.9096 1.61423 2.50772 1.60675 3.1345V30.8711C1.61558 31.4969 1.86468 32.0937 2.29954 32.5308C2.73439 32.9678 3.31959 33.2096 3.92706 33.2032H30.7396C31.348 33.2082 31.9335 32.9649 32.3683 32.5264C32.8031 32.0879 33.0517 31.4899 33.0599 30.8631V3.12653C33.049 2.50159 32.7992 1.90632 32.3647 1.47011C31.9302 1.03389 31.3462 0.791998 30.7396 0.796998Z" fill="#0076B2"/>
<path d="M6.26285 12.9438H10.9318V28.4218H6.26285V12.9438ZM8.59863 5.24072C9.13414 5.24072 9.65762 5.40437 10.1028 5.71095C10.5481 6.01753 10.895 6.45328 11.0999 6.96307C11.3047 7.47286 11.3581 8.03378 11.2535 8.57488C11.1488 9.11598 10.8907 9.61294 10.5119 10.0029C10.133 10.3928 9.65045 10.6583 9.12517 10.7656C8.59988 10.8729 8.05551 10.8173 7.56091 10.6058C7.06631 10.3943 6.64371 10.0364 6.34657 9.57737C6.04942 9.11836 5.89109 8.57887 5.8916 8.02713C5.89229 7.28788 6.17779 6.57916 6.68538 6.05668C7.19298 5.5342 7.88113 5.24072 8.59863 5.24072ZM13.8606 12.9438H18.3362V15.0688H18.3981C19.022 13.8523 20.5431 12.5693 22.8144 12.5693C27.5427 12.5587 28.4193 15.7648 28.4193 19.9218V28.4218H23.7503V20.8913C23.7503 19.0984 23.7193 16.7901 21.3243 16.7901C18.9292 16.7901 18.5218 18.7451 18.5218 20.7745V28.4218H13.8606V12.9438Z" fill="white"/>
</g>
<defs>
<clipPath id="clip0_1325_137">
<rect width="33" height="34" fill="white" transform="translate(0.833313)"/>
</clipPath>
</defs>
</svg>
