<svg width="45" height="46" viewBox="0 0 45 46" fill="none" xmlns="http://www.w3.org/2000/svg">
<g clip-path="url(#clip0_1329_37)">
<path d="M22.5 45.5C34.9264 45.5 45 35.4264 45 23C45 10.5736 34.9264 0.5 22.5 0.5C10.0736 0.5 0 10.5736 0 23C0 35.4264 10.0736 45.5 22.5 45.5Z" fill="#324A5E"/>
<path d="M45 23C45 22.6695 44.9914 22.3412 44.9772 22.0142L34.2315 11.2684L31.1971 15.1064L22.5 6.40906L22.5597 14.1658H19.3611L17.7986 15.7283L14.5697 12.4994L12.9614 13.4613L11.5771 14.693L15.2056 18.3215L13.7319 19.7952V22.9604L5.90906 23L14.0607 31.1517L10.7686 34.7316L21.5142 45.4772C21.8412 45.4913 22.1697 45.5 22.5001 45.5C34.9263 45.5 45 35.4263 45 23Z" fill="#2B3B4E"/>
<path d="M22.5 12.6115L21.5307 11.6422C20.3532 10.4647 20.3534 8.55561 21.5307 7.37814L22.5 6.40906L23.4693 7.37832C24.6466 8.55587 24.6466 10.4649 23.4693 11.6424L22.5 12.6115Z" fill="#79D720"/>
<path d="M23.4691 7.37814L22.5 6.40906L22.4495 6.45951V12.561L22.5 12.6115L23.4691 11.6424C24.6466 10.4649 24.6466 8.55579 23.4691 7.37814Z" fill="#66B31B"/>
<path d="M22.5 33.3885L23.4693 34.3577C24.6468 35.5353 24.6466 37.4444 23.4693 38.6218L22.5 39.5909L21.5307 38.6217C20.3532 37.4441 20.3534 35.535 21.5307 34.3576L22.5 33.3885Z" fill="#79D720"/>
<path d="M23.4692 34.3576L22.5 33.3883L22.4495 33.4388V39.5403L22.5 39.591L23.4691 38.6217C24.6466 37.4442 24.6466 35.5352 23.4692 34.3576Z" fill="#66B31B"/>
<path d="M32.8885 23L33.8577 22.0307C35.0353 20.8532 36.9444 20.8534 38.1218 22.0307L39.0909 23L38.1217 23.9693C36.9441 25.1466 35.035 25.1466 33.8576 23.9693L32.8885 23Z" fill="#66B31B"/>
<path d="M12.1115 23L11.1422 23.9693C9.96468 25.1468 8.05561 25.1466 6.87814 23.9693L5.90906 23L6.87832 22.0307C8.05587 20.8532 9.96495 20.8534 11.1424 22.0307L12.1115 23Z" fill="#79D720"/>
<path d="M29.8457 15.6543V14.2837C29.8457 12.6184 31.1957 11.2685 32.8609 11.2685H34.2314V12.6391C34.2314 14.3044 32.8814 15.6543 31.2163 15.6543H29.8457Z" fill="#66B31B"/>
<path d="M15.1544 30.3457V31.7163C15.1544 33.3815 13.8044 34.7314 12.1392 34.7314H10.7687V33.3609C10.7687 31.6956 12.1187 30.3457 13.7839 30.3457H15.1544Z" fill="#79D720"/>
<path d="M15.1543 15.6543H13.7837C12.1185 15.6543 10.7686 14.3043 10.7686 12.6391V11.2685H12.1391C13.8044 11.2685 15.1543 12.6185 15.1543 14.2837V15.6543Z" fill="#79D720"/>
<path d="M29.8457 30.3456H31.2163C32.8815 30.3456 34.2314 31.6956 34.2314 33.3608V34.7314H32.8609C31.1956 34.7314 29.8457 33.3814 29.8457 31.7162V30.3456Z" fill="#66B31B"/>
<path d="M23.0697 27.5243H21.9303V32.0818H23.0697V27.5243Z" fill="#66B31B"/>
<path d="M23.0702 27.5243H22.45V32.0818H23.0702V27.5243Z" fill="#599B13"/>
<path d="M23.3479 27.6932H21.6523C20.0659 27.6932 18.7798 26.4071 18.7798 24.8207V22.1128H26.2201V24.8207C26.2201 26.4072 24.9342 27.6932 23.3479 27.6932Z" fill="#CFDBE6"/>
<path d="M22.4495 22.1129V27.6932H23.3479C24.9342 27.6932 26.2203 26.4071 26.2203 24.8207V22.1128L22.4495 22.1129Z" fill="#B8C9D9"/>
<path d="M20.0242 22.2001H19.744C19.5324 22.2001 19.361 22.0286 19.361 21.8171V18.3981C19.361 18.1866 19.5324 18.0151 19.744 18.0151H20.0242C20.2357 18.0151 20.4072 18.1866 20.4072 18.3981V21.8171C20.4074 22.0286 20.2359 22.2001 20.0242 22.2001Z" fill="#CFDBE6"/>
<path d="M25.2557 22.2001H24.9755C24.764 22.2001 24.5923 22.0286 24.5923 21.8171V18.3981C24.5923 18.1866 24.7638 18.0151 24.9755 18.0151H25.2557C25.4673 18.0151 25.6388 18.1866 25.6388 18.3981V21.8171C25.6389 22.0286 25.4675 22.2001 25.2557 22.2001Z" fill="#B8C9D9"/>
<path d="M26.6247 22.9849H18.3753C18.2697 22.9849 18.184 22.8993 18.184 22.7936V21.2579C18.184 21.1523 18.2696 21.0666 18.3753 21.0666H26.6247C26.7304 21.0666 26.816 21.1522 26.816 21.2579V22.7936C26.816 22.8993 26.7303 22.9849 26.6247 22.9849Z" fill="#F9B54C"/>
<path d="M26.6247 21.0667H22.4495V22.9849H26.6247C26.7303 22.9849 26.816 22.8993 26.816 22.7936V21.2579C26.816 21.1523 26.7302 21.0667 26.6247 21.0667Z" fill="#F4A200"/>
<path d="M36.7073 22.5454H32.1112C32.0032 20.2343 31.0768 18.1336 29.615 16.528L32.8676 13.2754C33.0451 13.0979 33.0451 12.8101 32.8676 12.6327C32.6901 12.4551 32.4025 12.4551 32.2249 12.6327L28.9723 15.8852C27.3667 14.4233 25.2659 13.4969 22.9547 13.3889V8.79274C22.9547 8.54163 22.7512 8.33817 22.5001 8.33817C22.249 8.33817 22.0455 8.54163 22.0455 8.79274V13.3888C19.7344 13.4968 17.6337 14.4232 16.0279 15.8852L12.7752 12.6326C12.5976 12.4551 12.3101 12.4551 12.1324 12.6326C11.9549 12.81 11.9549 13.0979 12.1324 13.2753L15.385 16.5279C13.9232 18.1335 12.9967 20.2342 12.8887 22.5455H8.29277C8.04166 22.5455 7.8382 22.749 7.8382 23.0001C7.8382 23.2512 8.04166 23.4547 8.29277 23.4547H12.8888C12.9968 25.7658 13.9232 27.8666 15.3852 29.4723L12.1326 32.7248C11.9551 32.9023 11.9551 33.1901 12.1326 33.3676C12.2214 33.4563 12.3378 33.5007 12.4539 33.5007C12.5701 33.5007 12.6865 33.4563 12.7753 33.3676L16.028 30.1148C17.6336 31.5766 19.7344 32.503 22.0455 32.611V37.2071C22.0455 37.4582 22.2489 37.6616 22.5 37.6616C22.7511 37.6616 22.9546 37.4582 22.9546 37.2071V32.611C25.2658 32.503 27.3664 31.5766 28.9722 30.1147L32.2248 33.3672C32.3135 33.456 32.4299 33.5004 32.5461 33.5004C32.6623 33.5004 32.7787 33.456 32.8674 33.3672C33.045 33.1898 33.045 32.9019 32.8674 32.7245L29.6149 29.4719C31.0766 27.8663 32.0032 25.7656 32.1112 23.4543H36.7073C36.9584 23.4543 37.1618 23.2508 37.1618 22.9997C37.1618 22.7486 36.9584 22.5454 36.7073 22.5454ZM22.5 31.5621C17.779 31.5621 13.9379 27.721 13.9379 23C13.9379 18.2789 17.779 14.4379 22.5 14.4379C27.2211 14.4379 31.0621 18.2789 31.0621 23C31.0621 27.721 27.2211 31.5621 22.5 31.5621Z" fill="#66B31B"/>
<path d="M36.7073 22.5454H32.1112C32.0032 20.2343 31.0768 18.1336 29.615 16.528L32.8676 13.2754C33.0451 13.0979 33.0451 12.8101 32.8676 12.6327C32.69 12.4551 32.4025 12.4551 32.2248 12.6327L28.9723 15.8852C27.3667 14.4233 25.2659 13.4969 22.9547 13.3889V8.79274C22.9547 8.54163 22.7512 8.33817 22.5001 8.33817C22.4828 8.33817 22.4664 8.34133 22.4496 8.34335V14.4393C22.4666 14.4391 22.4831 14.438 22.5001 14.438C27.2211 14.438 31.0622 18.2791 31.0622 23.0002C31.0622 27.7212 27.2211 31.5623 22.5001 31.5623C22.4831 31.5623 22.4666 31.5611 22.4496 31.5611V37.657C22.4664 37.6588 22.4829 37.6622 22.5001 37.6622C22.7512 37.6622 22.9547 37.4587 22.9547 37.2076V32.6115C25.2658 32.5035 27.3665 31.5771 28.9723 30.1152L32.2248 33.3677C32.3136 33.4565 32.43 33.5009 32.5462 33.5009C32.6624 33.5009 32.7787 33.4565 32.8675 33.3677C33.045 33.1903 33.045 32.9025 32.8675 32.725L29.6149 29.4724C31.0767 27.8668 32.0033 25.7661 32.1113 23.4548H36.7074C36.9585 23.4548 37.1619 23.2514 37.1619 23.0003C37.1619 22.7492 36.9584 22.5454 36.7073 22.5454Z" fill="#599B13"/>
</g>
<defs>
<clipPath id="clip0_1329_37">
<rect width="45" height="45" fill="white" transform="translate(0 0.5)"/>
</clipPath>
</defs>
</svg>
