<svg xmlns="http://www.w3.org/2000/svg" viewBox="0 0 500 500"><g id="freepik--Floor--inject-132"><ellipse id="freepik--floor--inject-132" cx="250" cy="333.54" rx="232.87" ry="134.45" style="fill:#f0f0f0"></ellipse></g><g id="freepik--House--inject-132"><g id="freepik--house--inject-132"><polygon points="272.04 320.13 362.72 364.84 362.72 292.7 272.04 240.35 272.04 320.13" style="fill:#f0f0f0"></polygon><polygon points="272.04 254.08 362.72 306.44 362.72 292.7 272.04 240.35 272.04 254.08" style="fill:#e0e0e0"></polygon><polygon points="362.72 364.84 423.18 329.93 423.18 257.8 423.18 257.8 423.18 257.8 392.95 240.35 362.72 292.7 362.72 292.7 362.72 292.7 362.72 364.84" style="fill:#fafafa"></polygon><polygon points="358.4 300.18 392.95 240.35 392.95 236.61 358.4 296.44 358.4 300.18" style="fill:#37474f"></polygon><rect x="295.79" y="187.99" width="69.09" height="104.71" transform="translate(-42.98 406.26) rotate(-60)" style="fill:#455a64"></rect><polygon points="267.72 244.09 358.4 296.44 358.4 300.18 267.72 247.83 267.72 244.09" style="fill:#263238"></polygon><polygon points="392.95 236.61 430.73 258.42 427.5 260.29 392.95 240.35 392.95 236.61" style="fill:#37474f"></polygon><polygon points="427.5 260.29 423.18 260.29 423.18 257.8 427.5 260.29" style="fill:#263238"></polygon><polygon points="289.24 237.71 289.24 219.76 299.58 213.79 309.88 231.63 309.88 249.64 289.24 237.71" style="fill:#f0f0f0"></polygon><polygon points="299.58 213.79 286.82 221.15 285.19 220.21 299.58 211.9 299.58 213.79" style="opacity:0.2"></polygon><polygon points="309.88 249.64 320.19 231.75 325.45 222.61 309.88 231.62 309.88 249.64" style="fill:#fafafa"></polygon><polygon points="286.82 221.15 289.24 221.15 289.24 219.76 286.82 221.15" style="opacity:0.4"></polygon><polygon points="312.34 235.88 299.58 213.79 299.58 211.9 313.93 236.8 312.34 235.88" style="fill:#263238"></polygon><polygon points="313.93 236.8 299.58 211.9 314.42 203.32 328.77 228.22 313.93 236.8" style="fill:#37474f"></polygon><polygon points="304.72 228.74 294.4 222.78 294.4 234.68 304.72 240.65 304.72 228.74" style="fill:#455a64"></polygon><polygon points="295.46 234.07 295.46 223.39 304.72 228.74 304.72 239.42 295.46 234.07" style="fill:#e0e0e0"></polygon><polygon points="294.4 234.68 295.46 234.07 304.72 239.42 304.72 240.65 294.4 234.68" style="fill:#37474f"></polygon><polygon points="332.42 262.64 332.42 244.69 342.75 238.72 353.06 256.56 353.06 274.57 332.42 262.64" style="fill:#f0f0f0"></polygon><polygon points="342.75 238.72 330 246.08 328.37 245.14 342.75 236.83 342.75 238.72" style="opacity:0.2"></polygon><polygon points="353.05 274.57 363.36 256.69 368.63 247.54 353.05 256.56 353.05 274.57" style="fill:#fafafa"></polygon><polygon points="330 246.08 332.42 246.08 332.42 244.69 330 246.08" style="opacity:0.4"></polygon><polygon points="355.51 260.81 342.75 238.72 342.75 236.83 357.11 261.73 355.51 260.81" style="fill:#263238"></polygon><polygon points="357.11 261.73 342.75 236.83 357.59 228.25 371.94 253.15 357.11 261.73" style="fill:#37474f"></polygon><polygon points="347.9 253.67 337.58 247.71 337.58 259.62 347.9 265.58 347.9 253.67" style="fill:#455a64"></polygon><polygon points="338.63 259 338.63 248.32 347.9 253.67 347.9 264.36 338.63 259" style="fill:#e0e0e0"></polygon><polygon points="337.58 259.62 338.63 259 347.9 264.36 347.9 265.58 337.58 259.62" style="fill:#37474f"></polygon><polygon points="399.19 313.1 420.78 300.63 420.78 323.57 399.19 336.03 399.19 313.1" style="fill:#263238"></polygon><polygon points="419.45 322.8 419.45 301.39 399.19 313.1 399.19 334.5 419.45 322.8" style="fill:#e6e6e6"></polygon><polygon points="419.45 301.39 419.45 303.59 399.19 315.29 399.19 313.1 419.45 301.39" style="fill:#e0e0e0"></polygon><polygon points="420.78 323.57 419.45 322.8 399.19 334.5 399.19 336.03 420.78 323.57" style="fill:#37474f"></polygon><polygon points="420.78 312.1 419.45 311.33 399.19 323.03 399.19 324.56 420.78 312.1" style="fill:#37474f"></polygon><polygon points="410.43 329.54 409.1 330.31 409.1 307.37 410.43 306.6 410.43 329.54" style="fill:#37474f"></polygon><polygon points="374.68 357.94 374.68 325 391.63 315.21 391.63 348.15 374.68 357.94" style="fill:#37474f"></polygon><polygon points="390.84 347.56 390.84 315.66 374.68 325 374.68 356.9 390.84 347.56" style="fill:#455a64"></polygon><polygon points="391.63 315.21 390.84 315.66 390.84 347.56 391.63 348.15 391.63 315.21" style="fill:#263238"></polygon><polygon points="411.28 296.36 372.68 318.65 372.68 307.5 411.28 285.04 411.28 296.36" style="fill:#e0e0e0"></polygon><polygon points="384.26 271.05 399.7 262.14 399.7 289.67 384.26 298.59 384.26 271.05" style="fill:#455a64"></polygon><polygon points="399.08 289.32 399.08 262.5 384.26 271.05 384.26 297.87 399.08 289.32" style="fill:#e6e6e6"></polygon><polygon points="399.08 262.5 399.08 265.22 384.26 273.78 384.26 271.05 399.08 262.5" style="fill:#e0e0e0"></polygon><polygon points="399.7 289.67 399.08 289.32 384.26 297.87 384.26 298.59 399.7 289.67" style="fill:#37474f"></polygon><polygon points="392.6 266.24 391.98 266.6 391.98 294.13 392.6 293.78 392.6 266.24" style="fill:#455a64"></polygon><polygon points="391.98 266.6 391.98 294.13 391.36 293.78 391.36 266.95 391.98 266.6" style="fill:#37474f"></polygon><polygon points="372.68 305.28 411.28 282.99 419 287.45 380.4 309.73 372.68 305.28" style="fill:#e0e0e0"></polygon><polygon points="372.68 305.28 372.68 307.5 380.4 311.96 380.4 309.73 372.68 305.28" style="fill:#ebebeb"></polygon><polygon points="380.4 309.73 419 287.45 419 289.68 380.4 311.96 380.4 309.73" style="fill:#f5f5f5"></polygon><path d="M380.68,295.25v13.24a.14.14,0,0,1-.09.12.45.45,0,0,1-.39,0,.12.12,0,0,1-.08-.12V295.25Z" style="fill:#37474f"></path><path d="M384,293.32v13.25a.14.14,0,0,1-.08.11.47.47,0,0,1-.4,0,.14.14,0,0,1-.08-.11V293.32Z" style="fill:#37474f"></path><path d="M387.35,291.39v13.25a.17.17,0,0,1-.08.12.47.47,0,0,1-.4,0,.17.17,0,0,1-.08-.12V291.39Z" style="fill:#37474f"></path><path d="M390.69,289.47v13.24a.14.14,0,0,1-.09.12.44.44,0,0,1-.39,0,.12.12,0,0,1-.08-.12V289.47Z" style="fill:#37474f"></path><path d="M394,287.54v13.25a.12.12,0,0,1-.08.11.41.41,0,0,1-.4,0,.14.14,0,0,1-.08-.11V287.54Z" style="fill:#37474f"></path><path d="M397.36,285.61v13.25a.17.17,0,0,1-.08.12.47.47,0,0,1-.4,0,.17.17,0,0,1-.08-.12V285.61Z" style="fill:#37474f"></path><path d="M400.7,283.69v13.25s0,.08-.09.11a.44.44,0,0,1-.39,0,.12.12,0,0,1-.08-.11V283.69Z" style="fill:#37474f"></path><path d="M404,281.76V295a.12.12,0,0,1-.08.11.39.39,0,0,1-.39,0c-.06,0-.09-.07-.09-.11V281.76Z" style="fill:#37474f"></path><path d="M407.37,279.83v13.25a.17.17,0,0,1-.08.12.47.47,0,0,1-.4,0,.17.17,0,0,1-.08-.12V279.83Z" style="fill:#37474f"></path><path d="M410.71,277.91v13.25s0,.08-.09.11a.44.44,0,0,1-.39,0,.12.12,0,0,1-.08-.11V277.91Z" style="fill:#37474f"></path><path d="M414,276v13.25a.12.12,0,0,1-.08.11.39.39,0,0,1-.39,0c-.06,0-.09-.07-.09-.11V276Z" style="fill:#37474f"></path><path d="M417.38,274.05V287.3a.15.15,0,0,1-.08.12.47.47,0,0,1-.4,0,.15.15,0,0,1-.08-.12V274.05Z" style="fill:#37474f"></path><path d="M380.4,295.72a.48.48,0,0,1-.24-.06L374,292.14a.48.48,0,0,1-.17-.65.45.45,0,0,1,.64-.17l6,3.38L418,273l-8.79-5a.48.48,0,0,1,.47-.83l9.51,5.42a.48.48,0,0,1,0,.82l-38.61,22.29A.46.46,0,0,1,380.4,295.72Z" style="fill:#455a64"></path><polygon points="302.43 390.97 219.35 343.03 219.35 301.71 302.43 349.65 302.43 390.97" style="fill:#f0f0f0"></polygon><polygon points="302.43 349.65 302.43 360.92 219.35 312.98 219.35 301.71 302.43 349.65" style="fill:#e0e0e0"></polygon><polygon points="302.43 390.97 355.13 360.45 355.13 308.23 302.43 349.65 302.43 390.97" style="fill:#fafafa"></polygon><polygon points="307.52 388.04 307.52 358.66 350.04 334.02 350.04 363.39 307.52 388.04" style="fill:#455a64"></polygon><polygon points="350.04 334.02 349.56 334.29 349.56 363.11 350.04 363.38 350.04 334.02" style="fill:#263238"></polygon><polygon points="349.55 363.12 307.52 387.49 307.52 388.04 350.04 363.39 349.55 363.12" style="fill:#37474f"></polygon><polygon points="301.41 354.94 357.67 309.7 357.67 306.76 301.41 352 301.41 354.94" style="fill:#37474f"></polygon><polygon points="301.41 354.94 215.78 305.53 215.78 302.59 301.41 352 301.41 354.94" style="fill:#263238"></polygon><polygon points="272.04 257.35 357.67 306.76 301.41 352 215.78 302.59 272.04 257.35" style="fill:#455a64"></polygon><polygon points="252.25 328.89 230.66 316.43 230.66 339.36 252.25 351.83 252.25 328.89" style="fill:#263238"></polygon><polygon points="231.99 338.59 231.99 317.19 252.25 328.89 252.25 350.29 231.99 338.59" style="fill:#fafafa"></polygon><polygon points="231.99 317.19 231.99 322.18 252.25 333.88 252.25 328.89 231.99 317.19" style="fill:#f0f0f0"></polygon><polygon points="230.66 339.36 231.99 338.59 252.25 350.29 252.25 351.83 230.66 339.36" style="fill:#37474f"></polygon><polygon points="230.66 327.89 231.99 327.12 252.25 338.82 252.25 340.36 230.66 327.89" style="fill:#37474f"></polygon><polygon points="241.01 345.34 242.34 346.1 242.34 323.17 241.01 322.4 241.01 345.34" style="fill:#37474f"></polygon><polygon points="291.12 351.33 269.52 338.87 269.52 361.8 291.12 374.27 291.12 351.33" style="fill:#263238"></polygon><polygon points="270.85 361.03 270.85 339.63 291.12 351.33 291.12 372.73 270.85 361.03" style="fill:#fafafa"></polygon><polygon points="270.85 339.63 270.85 344.62 291.12 356.32 291.12 351.33 270.85 339.63" style="fill:#f0f0f0"></polygon><polygon points="269.52 361.8 270.85 361.03 291.12 372.73 291.12 374.27 269.52 361.8" style="fill:#37474f"></polygon><polygon points="269.52 350.33 270.85 349.57 291.12 361.26 291.12 362.8 269.52 350.33" style="fill:#37474f"></polygon><polygon points="279.87 367.78 281.2 368.54 281.2 345.61 279.87 344.84 279.87 367.78" style="fill:#37474f"></polygon><polyline points="374.68 357.94 406.95 376.44 423.78 366.71 391.63 348.15 377.12 356.53" style="fill:#f0f0f0"></polyline><g id="freepik--Fence--inject-132"><polygon points="275.06 402.13 275.06 391.26 273.53 388.08 271.96 389.47 271.96 400.34 275.06 402.13" style="fill:#f5f5f5"></polygon><polygon points="275.06 391.26 275.84 390.82 275.84 401.68 275.06 402.13 275.06 391.26" style="fill:#e0e0e0"></polygon><polygon points="273.53 388.08 274.3 387.62 275.84 390.82 275.06 391.26 273.53 388.08" style="fill:#fff"></polygon><polygon points="267.13 397.55 267.13 386.68 265.6 383.5 264.03 384.89 264.03 395.76 267.13 397.55" style="fill:#f5f5f5"></polygon><polygon points="267.13 386.68 267.91 386.24 267.91 397.1 267.13 397.55 267.13 386.68" style="fill:#e0e0e0"></polygon><polygon points="265.6 383.5 266.37 383.04 267.91 386.24 267.13 386.68 265.6 383.5" style="fill:#fff"></polygon><polygon points="259.2 392.97 259.2 382.11 257.66 378.93 256.1 380.31 256.1 391.18 259.2 392.97" style="fill:#f5f5f5"></polygon><polygon points="259.2 382.11 259.98 381.66 259.98 392.52 259.2 392.97 259.2 382.11" style="fill:#e0e0e0"></polygon><polygon points="257.66 378.93 258.44 378.46 259.98 381.66 259.2 382.11 257.66 378.93" style="fill:#fff"></polygon><polygon points="251.27 388.39 251.27 377.53 249.73 374.35 248.16 375.73 248.16 386.6 251.27 388.39" style="fill:#f5f5f5"></polygon><polygon points="251.27 377.53 252.04 377.08 252.04 387.94 251.27 388.39 251.27 377.53" style="fill:#e0e0e0"></polygon><polygon points="249.73 374.35 250.51 373.88 252.04 377.08 251.27 377.53 249.73 374.35" style="fill:#fff"></polygon><polygon points="243.34 383.81 243.34 372.95 241.8 369.77 240.23 371.16 240.23 382.02 243.34 383.81" style="fill:#f5f5f5"></polygon><polygon points="243.34 372.95 244.11 372.5 244.11 383.37 243.34 383.81 243.34 372.95" style="fill:#e0e0e0"></polygon><polygon points="241.8 369.77 242.57 369.3 244.11 372.5 243.34 372.95 241.8 369.77" style="fill:#fff"></polygon><polygon points="235.4 379.23 235.4 368.37 233.87 365.19 232.3 366.58 232.3 377.44 235.4 379.23" style="fill:#f5f5f5"></polygon><polygon points="235.4 368.37 236.18 367.92 236.18 378.79 235.4 379.23 235.4 368.37" style="fill:#e0e0e0"></polygon><polygon points="233.87 365.19 234.64 364.72 236.18 367.92 235.4 368.37 233.87 365.19" style="fill:#fff"></polygon><polygon points="227.47 374.65 227.47 363.79 225.94 360.61 224.37 362 224.37 372.86 227.47 374.65" style="fill:#f5f5f5"></polygon><polygon points="227.47 363.79 228.25 363.34 228.25 374.21 227.47 374.65 227.47 363.79" style="fill:#e0e0e0"></polygon><polygon points="225.94 360.61 226.71 360.14 228.25 363.34 227.47 363.79 225.94 360.61" style="fill:#fff"></polygon><polygon points="219.54 370.08 219.54 359.21 218 356.03 216.44 357.42 216.44 368.28 219.54 370.08" style="fill:#f5f5f5"></polygon><polygon points="219.54 359.21 220.31 358.76 220.31 369.63 219.54 370.08 219.54 359.21" style="fill:#e0e0e0"></polygon><polygon points="218 356.03 218.78 355.57 220.31 358.76 219.54 359.21 218 356.03" style="fill:#fff"></polygon><polygon points="211.61 365.5 211.61 354.63 210.07 351.45 208.5 352.84 208.5 363.7 211.61 365.5" style="fill:#f5f5f5"></polygon><polygon points="211.61 354.63 212.38 354.18 212.38 365.05 211.61 365.5 211.61 354.63" style="fill:#e0e0e0"></polygon><polygon points="210.07 351.45 210.85 350.99 212.38 354.18 211.61 354.63 210.07 351.45" style="fill:#fff"></polygon><polygon points="203.68 360.92 203.68 350.05 202.14 346.87 200.57 348.26 200.57 359.13 203.68 360.92" style="fill:#f5f5f5"></polygon><polygon points="203.68 350.05 204.45 349.61 204.45 360.47 203.68 360.92 203.68 350.05" style="fill:#e0e0e0"></polygon><polygon points="202.14 346.87 202.91 346.41 204.45 349.61 203.68 350.05 202.14 346.87" style="fill:#fff"></polygon><polygon points="278.34 395.18 197.55 348.54 197.55 349.83 278.34 396.47 278.34 395.18" style="fill:#ebebeb"></polygon><polygon points="278.34 395.18 278.86 394.88 278.86 396.17 278.34 396.47 278.34 395.18" style="fill:#e0e0e0"></polygon><polygon points="197.55 348.54 278.34 395.18 278.86 394.88 198.07 348.23 197.55 348.54" style="fill:#fff"></polygon><polygon points="278.34 399.62 197.55 352.97 197.55 354.27 278.34 400.91 278.34 399.62" style="fill:#ebebeb"></polygon><polygon points="278.34 399.62 278.86 399.32 278.86 400.61 278.34 400.91 278.34 399.62" style="fill:#e0e0e0"></polygon><polygon points="197.55 352.97 278.34 399.62 278.86 399.32 198.07 352.67 197.55 352.97" style="fill:#fff"></polygon></g></g></g><g id="freepik--Tree--inject-132"><g id="freepik--tree--inject-132"><rect x="449.74" y="315.56" width="14.88" height="1.22" transform="translate(-31.64 580.8) rotate(-63.1)" style="fill:#263238"></rect><rect x="449.66" y="307.59" width="1.22" height="12.48" transform="translate(-97.76 283.97) rotate(-31.76)" style="fill:#263238"></rect><path d="M454.83,306.94v32a.52.52,0,0,1-.3.42,1.59,1.59,0,0,1-1.44,0,.52.52,0,0,1-.3-.42v-32Z" style="fill:#263238"></path><circle cx="464.15" cy="296.99" r="14.85" style="fill:#258B39"></circle><path d="M468.81,293.19c1.91-6,3.95-8.39,2.66-9.12a14.85,14.85,0,1,0,4.14,22.37C471.21,307.72,466.32,301,468.81,293.19Z" style="opacity:0.2"></path><circle cx="440.76" cy="301.19" r="10.44" style="fill:#258B39"></circle><path d="M440.76,290.76a10.44,10.44,0,0,0-6.1,2c-.28,6.38,5.13,12.6,3.62,14.69s-5.24.8-6.54-1a10.44,10.44,0,1,0,9-15.68Z" style="opacity:0.2"></path><circle cx="453.81" cy="289.94" r="19.14" transform="translate(67.36 665) rotate(-76.72)" style="fill:#258B39"></circle><path d="M472.45,294.31a19.14,19.14,0,1,1-28.06-21,19.58,19.58,0,0,0-4.48,3.51,19.14,19.14,0,0,0,32.54,17.53Z" style="opacity:0.1"></path></g></g><g id="freepik--speech-bubble--inject-132"><g id="freepik--speech-bubble--inject-132"><path d="M383.5,181.24l-4.35-8.19,3.5-10.11v-6.19l-10.72,6.19v6.19l4.61,8a.69.69,0,0,0,.31.28h0Z" style="fill:#258B39"></path><path d="M383.5,181.24l-4.35-8.19,3.5-10.11v-6.19l-10.72,6.19v6.19l4.61,8a.69.69,0,0,0,.31.28h0Z" style="opacity:0.2"></path><path d="M409.1,107.55a7.13,7.13,0,0,0-3.21-5.57l-2.62-1.51a7.08,7.08,0,0,0-6.43,0l-40.13,23.21a7.13,7.13,0,0,0-3.21,5.57v44.16a7.09,7.09,0,0,0,3.21,5.56l2.62,1.52a7.14,7.14,0,0,0,6.43,0l12.9-7.46,4.6,8a.69.69,0,0,0,1.25-.11l4.86-14,16.52-9.57a7.07,7.07,0,0,0,3.21-5.56Z" style="fill:#258B39"></path><path d="M353.5,173.41a7.09,7.09,0,0,0,3.21,5.56l2.62,1.52a7.2,7.2,0,0,0,5.88.25c-1.52.58-2.67-.28-2.67-2.11V134.47a6.62,6.62,0,0,1,.94-3.17l-9-5.22a6.59,6.59,0,0,0-.94,3.17Z" style="opacity:0.2"></path><path d="M409,106.63c-.38-1.36-1.62-1.79-3.11-.94l-40.14,23.22a6.4,6.4,0,0,0-2.26,2.4l-9-5.22a6.48,6.48,0,0,1,2.26-2.4l40.13-23.22a7.14,7.14,0,0,1,6.43,0l2.62,1.52A7.1,7.1,0,0,1,409,106.63Z" style="fill:#fff;opacity:0.5"></path><path d="M403.38,120.07c-2.64,6.14.62,15.68-1.71,23.26s-6.52,10.93-11.07,10.34c-.53-8.5,2.13-17.18,6.53-24.32-4.19,4.26-9.85,11.33-8.61,24.07-3.46-1.5-6.62-8.24-2.94-16.52C390.65,125.52,403.38,120.07,403.38,120.07Z" style="fill:#fff"></path><polygon points="375.62 129.66 367.6 150.94 374.49 152.13 372.34 169.26 380.7 147.23 373.83 145.73 375.62 129.66" style="fill:#fff"></polygon></g></g><g id="freepik--wind-turbines--inject-132"><g id="freepik--wind-turbine--inject-132"><path d="M164.68,254c7,4,18.34,4,25.33,0s7-10.59,0-14.63-18.34-4-25.33,0S157.68,249.92,164.68,254Z" style="opacity:0.1"></path><path d="M190,245.21h0c0-1.86-1.23-3.73-3.69-5.15-4.94-2.85-12.93-2.85-17.87,0-2.46,1.42-3.69,3.29-3.68,5.15h0V247h0c0,1.84,1.27,3.68,3.7,5.08,4.94,2.85,12.94,2.85,17.87,0,2.43-1.4,3.67-3.24,3.7-5.08h0Z" style="fill:#37474f"></path><path d="M168.41,240.06c-4.93,2.84-4.93,7.46,0,10.31s12.94,2.85,17.87,0,4.93-7.47,0-10.31S173.35,237.21,168.41,240.06Z" style="fill:#455a64"></path><path d="M180.89,244.47h0L179,128.5h0a.79.79,0,0,0-.46-.62,2.48,2.48,0,0,0-2.28,0,.83.83,0,0,0-.47.62h0l-1.94,116h0a1.71,1.71,0,0,0,1,1.52,5.55,5.55,0,0,0,5,0A1.73,1.73,0,0,0,180.89,244.47Z" style="fill:#258B39"></path><path d="M180.89,244.47h0L179,128.5h0a.79.79,0,0,0-.46-.62,2.48,2.48,0,0,0-2.28,0,.83.83,0,0,0-.47.62h0l-1.94,116h0a1.71,1.71,0,0,0,1,1.52,5.55,5.55,0,0,0,5,0A1.73,1.73,0,0,0,180.89,244.47Z" style="fill:#fff;opacity:0.7000000000000001"></path><path d="M177.34,127.61a2.3,2.3,0,0,0-1.13.27.83.83,0,0,0-.47.62h0l-1.94,116h0a1.71,1.71,0,0,0,1,1.52,4.75,4.75,0,0,0,1.46.5Z" style="opacity:0.1"></path><path d="M178.49,127.88a2.48,2.48,0,0,0-2.28,0,.83.83,0,0,0-.47.62h0l-.09,4.79c1.13.9,2.33,1.74,3.44,2.49L179,128.5h0A.79.79,0,0,0,178.49,127.88Z" style="fill:#258B39;opacity:0.1"></path><path d="M178.49,127.88a2.48,2.48,0,0,0-2.28,0,.83.83,0,0,0-.47.62h0l-.09,4.79c1.13.9,2.33,1.74,3.44,2.49L179,128.5h0A.79.79,0,0,0,178.49,127.88Z" style="opacity:0.1"></path><path d="M170.62,122.08c-2,4.52,13.15,12.9,13.15,12.9L189,123.09s-16.4-5.53-18.39-1" style="fill:#258B39"></path><path d="M170.62,122.08c-2,4.52,13.15,12.9,13.15,12.9L189,123.09s-16.4-5.53-18.39-1" style="fill:#fff;opacity:0.6000000000000001"></path><path d="M171.4,121.16c.2,1,1.69,2.36,3.32,3.42,2.11,1.39,10.18,5,10.18,5l1.89-1.45,2.22-5S175.23,118.44,171.4,121.16Z" style="fill:#fff;opacity:0.30000000000000004"></path><path d="M187,134.31a10.14,10.14,0,0,0,3.71-8.41c-.31-2.92-2.49-3.88-4.85-2.14a10.13,10.13,0,0,0-3.71,8.41C182.42,135.08,184.6,136,187,134.31Z" style="fill:#258B39"></path><path d="M187,134.31a10.14,10.14,0,0,0,3.71-8.41c-.31-2.92-2.49-3.88-4.85-2.14a10.13,10.13,0,0,0-3.71,8.41C182.42,135.08,184.6,136,187,134.31Z" style="fill:#fff;opacity:0.8"></path><path d="M187.67,125.51l1.45.64-.5,1.13a5.89,5.89,0,0,1-2,4.59l-.5,1.13-1.46-.65h0a1.86,1.86,0,0,1-.95-1.62,5.84,5.84,0,0,1,2.13-4.84A1.85,1.85,0,0,1,187.67,125.51Z" style="fill:#37474f"></path><path d="M190.08,127.77a5.86,5.86,0,0,1-2.14,4.84c-1.36,1-2.61.44-2.8-1.23a5.88,5.88,0,0,1,2.14-4.85C188.64,125.54,189.89,126.09,190.08,127.77Z" style="fill:#455a64"></path><path d="M188.83,128.68a2.88,2.88,0,0,1-1.06,2.4c-.67.49-1.29.22-1.38-.61a2.92,2.92,0,0,1,1.06-2.41C188.12,127.57,188.74,127.84,188.83,128.68Z" style="fill:#263238"></path><ellipse cx="187.65" cy="129.58" rx="53.2" ry="30.1" transform="translate(-5.06 251.51) rotate(-66.95)" style="fill:#258B39;opacity:0.05"></ellipse><path d="M187.65,129.58l34.65-23.37c-.45-8.1-2.55-14.63-5.88-19.24l-28.15,39.54Z" style="fill:#258B39;opacity:0.1"></path><path d="M216.42,87c-4.63-6.42-11.61-9.15-19.78-7.35l-.1.1s-7.21,24.12-8.89,34.54.62,12.25.62,12.25Z" style="fill:#258B39;opacity:0.2"></path><path d="M187.65,129.58l-19.51-27.07a92.23,92.23,0,0,0-11.76,24.91l29.2,4Z" style="fill:#258B39;opacity:0.1"></path><path d="M156.38,127.42c-3.59,12-4.49,23.93-2.3,33.55l.08.05s16.56-11.22,23.54-18,7.88-11.57,7.88-11.57Z" style="fill:#258B39;opacity:0.2"></path><path d="M187.65,129.58,172.51,180c5.65.39,11.73-1.67,17.65-5.67l-1.06-43.54Z" style="fill:#258B39;opacity:0.1"></path><path d="M190.16,174.35c8.21-5.54,16.1-14.78,22.08-26.21l0-.14s-9.36-12.9-14.66-16.51-8.5-.68-8.5-.68Z" style="fill:#258B39;opacity:0.2"></path><path d="M188.72,123.75l7.79-42.82c.18-1-.62-1.21-1.14-.29-1.89,3.35-5.1,10.19-8.05,21.93-4.19,16.63-3.4,23.16-.28,23.23C187.73,125.81,188.52,124.82,188.72,123.75Z" style="fill:#455a64"></path><path d="M183.7,133.27l-28.79,26.78c-.67.63-.71,1.91,0,1.82,2.42-.34,7.26-1.92,15.26-8.15,11.32-8.82,15.47-15.61,15.12-19.95C185.16,132.82,184.42,132.6,183.7,133.27Z" style="fill:#455a64"></path><path d="M190.51,131.82l21,16c.49.38,1.33-.7,1.19-1.53a27.77,27.77,0,0,0-7.2-13.78c-7.14-7.82-12.07-7.55-14.85-3.28C190,130.2,190,131.42,190.51,131.82Z" style="fill:#455a64"></path></g><g id="freepik--wind-turbine--inject-132"><path d="M78.78,303.55c7,4,18.33,4,25.33,0s7-10.59,0-14.62-18.34-4-25.33,0S71.78,299.51,78.78,303.55Z" style="opacity:0.1"></path><path d="M104.08,294.81h0c0-1.87-1.22-3.73-3.68-5.16-4.94-2.85-12.94-2.85-17.87,0-2.46,1.43-3.69,3.29-3.69,5.16h0v1.74h0c0,1.85,1.27,3.68,3.7,5.09,4.93,2.85,12.93,2.85,17.87,0,2.43-1.41,3.67-3.24,3.7-5.09h0Z" style="fill:#37474f"></path><path d="M82.51,289.65c-4.93,2.85-4.93,7.47,0,10.32s12.93,2.84,17.87,0,4.93-7.47,0-10.32S87.44,286.8,82.51,289.65Z" style="fill:#455a64"></path><path d="M95,294.07h0l-1.93-116h0a.83.83,0,0,0-.46-.63,2.54,2.54,0,0,0-2.28,0,.82.82,0,0,0-.47.63h0l-1.94,116h0a1.69,1.69,0,0,0,1,1.51,5.57,5.57,0,0,0,5,0A1.7,1.7,0,0,0,95,294.07Z" style="fill:#258B39"></path><path d="M95,294.07h0l-1.93-116h0a.83.83,0,0,0-.46-.63,2.54,2.54,0,0,0-2.28,0,.82.82,0,0,0-.47.63h0l-1.94,116h0a1.69,1.69,0,0,0,1,1.51,5.57,5.57,0,0,0,5,0A1.7,1.7,0,0,0,95,294.07Z" style="fill:#fff;opacity:0.7000000000000001"></path><path d="M91.44,177.2a2.3,2.3,0,0,0-1.13.27.82.82,0,0,0-.47.63h0l-1.94,116h0a1.69,1.69,0,0,0,1,1.51,4.33,4.33,0,0,0,1.47.5Z" style="opacity:0.1"></path><path d="M92.59,177.47a2.54,2.54,0,0,0-2.28,0,.82.82,0,0,0-.47.63h0l-.08,4.79c1.13.89,2.33,1.74,3.44,2.49l-.13-7.28h0A.83.83,0,0,0,92.59,177.47Z" style="fill:#258B39;opacity:0.1"></path><path d="M92.59,177.47a2.54,2.54,0,0,0-2.28,0,.82.82,0,0,0-.47.63h0l-.08,4.79c1.13.89,2.33,1.74,3.44,2.49l-.13-7.28h0A.83.83,0,0,0,92.59,177.47Z" style="opacity:0.1"></path><path d="M84.72,171.68c-2,4.51,13.14,12.9,13.14,12.9l5.25-11.9s-16.4-5.52-18.39-1" style="fill:#258B39"></path><path d="M84.72,171.68c-2,4.51,13.14,12.9,13.14,12.9l5.25-11.9s-16.4-5.52-18.39-1" style="fill:#fff;opacity:0.6000000000000001"></path><path d="M85.5,170.76c.19,1,1.69,2.35,3.31,3.42,2.12,1.39,10.19,5,10.19,5l1.89-1.45,2.22-5S89.32,168,85.5,170.76Z" style="fill:#fff;opacity:0.30000000000000004"></path><path d="M101.06,183.91a10.15,10.15,0,0,0,3.71-8.42c-.31-2.91-2.49-3.87-4.85-2.14a10.18,10.18,0,0,0-3.72,8.41C96.52,184.68,98.7,185.64,101.06,183.91Z" style="fill:#258B39"></path><path d="M101.06,183.91a10.15,10.15,0,0,0,3.71-8.42c-.31-2.91-2.49-3.87-4.85-2.14a10.18,10.18,0,0,0-3.72,8.41C96.52,184.68,98.7,185.64,101.06,183.91Z" style="fill:#fff;opacity:0.8"></path><path d="M101.76,175.1l1.46.64-.5,1.13a5.88,5.88,0,0,1-2,4.59l-.49,1.13L98.74,182h0a1.85,1.85,0,0,1-.95-1.62,5.81,5.81,0,0,1,2.13-4.84A1.87,1.87,0,0,1,101.76,175.1Z" style="fill:#37474f"></path><path d="M104.17,177.36A5.84,5.84,0,0,1,102,182.2c-1.36,1-2.62.45-2.8-1.23a5.87,5.87,0,0,1,2.14-4.84C102.74,175.13,104,175.69,104.17,177.36Z" style="fill:#455a64"></path><path d="M102.93,178.27a2.92,2.92,0,0,1-1.06,2.41c-.67.49-1.3.22-1.39-.62a2.91,2.91,0,0,1,1.06-2.4C102.22,177.16,102.84,177.44,102.93,178.27Z" style="fill:#263238"></path><ellipse cx="101.75" cy="179.17" rx="53.2" ry="30.1" transform="translate(-102.96 202.64) rotate(-66.95)" style="fill:#258B39;opacity:0.05"></ellipse><path d="M101.75,179.17,136.4,155.8c-.45-8.09-2.55-14.62-5.88-19.24l-28.15,39.55Z" style="fill:#258B39;opacity:0.1"></path><path d="M130.52,136.56c-4.63-6.41-11.62-9.15-19.79-7.34l-.09.1s-7.21,24.11-8.89,34.53.62,12.26.62,12.26Z" style="fill:#258B39;opacity:0.2"></path><path d="M101.75,179.17,82.24,152.11A92.5,92.5,0,0,0,70.47,177l29.21,4Z" style="fill:#258B39;opacity:0.1"></path><path d="M70.47,177c-3.58,12-4.49,23.93-2.29,33.55l.08.05s16.56-11.21,23.54-18S99.68,181,99.68,181Z" style="fill:#258B39;opacity:0.2"></path><path d="M101.75,179.17,86.61,229.61c5.65.4,11.73-1.67,17.64-5.66l-1-43.55Z" style="fill:#258B39;opacity:0.1"></path><path d="M104.25,224c8.22-5.55,16.11-14.78,22.08-26.21l0-.15S117,184.7,111.7,181.09s-8.5-.69-8.5-.69Z" style="fill:#258B39;opacity:0.2"></path><path d="M102.81,173.34l7.8-42.82c.18-1-.62-1.21-1.14-.29-1.89,3.36-5.1,10.19-8.06,21.94-4.18,16.63-3.39,23.16-.27,23.22C101.82,175.41,102.62,174.42,102.81,173.34Z" style="fill:#455a64"></path><path d="M97.79,182.87,69,209.65c-.68.62-.71,1.91-.05,1.81,2.42-.34,7.26-1.92,15.26-8.15,11.32-8.81,15.46-15.6,15.12-19.94C99.26,182.42,98.52,182.2,97.79,182.87Z" style="fill:#455a64"></path><path d="M104.61,181.42l21,16c.49.37,1.33-.7,1.19-1.53a27.75,27.75,0,0,0-7.2-13.79c-7.15-7.81-12.07-7.55-14.85-3.27C104.13,179.8,104.08,181,104.61,181.42Z" style="fill:#455a64"></path></g></g></svg>